<?xml version="1.0" encoding="utf-8"?>
<svg xmlns="http://www.w3.org/2000/svg" id="dvuckovic" width="16" height="16" fill="currentColor" class="bi" viewBox="0 0 16 16">
<path d="M13.74,11.17c-0.02-0.24-0.17-0.42-0.28-0.54c0,0-0.02-0.02-0.03-0.03c0-0.07-0.01-0.15-0.04-0.25
  c-0.04-0.15-0.12-0.27-0.18-0.34c0,0-0.01-0.01-0.01-0.01c0-0.02,0-0.04,0-0.05l0-0.01c0.01-0.1,0.02-0.23,0-0.38
  c-0.05-0.34-0.22-0.61-0.33-0.78c-0.02-0.03-0.05-0.07-0.06-0.1c0-0.04,0.01-0.09,0.02-0.14c0.02-0.15,0.05-0.35-0.02-0.58
  c0.12-0.39,0.04-0.78-0.02-1.1l0-0.01c-0.04-0.18-0.07-0.35-0.08-0.51c0.09-0.08,0.17-0.17,0.22-0.28c0.19-0.4,0.01-0.79-0.12-1.05
  l-0.05-0.1c-0.11-0.24-0.18-0.49-0.25-0.74l0-0.01c-0.11-0.37-0.22-0.74-0.44-1.11c-0.37-0.62-1.04-1.06-2.01-1.31
  C9.33,1.54,8.59,1.5,8.1,1.5c-0.37,0-0.73,0.02-1.08,0.07C5.22,1.79,4.14,2.97,3.97,4.9C3.89,5.06,3.85,5.22,3.8,5.37l0,0.01
  C3.77,5.5,3.71,5.69,3.67,5.74c-0.24,0.13-0.35,0.4-0.29,0.65C3.36,6.42,3.35,6.45,3.34,6.46l0,0C3.25,6.6,3.12,6.81,3.13,7.1
  c0.01,0.32,0.19,0.52,0.29,0.63c0.01,0.01,0.03,0.03,0.04,0.04C3.5,7.86,3.49,7.91,3.13,8.27c-0.38,0.37-0.89,0.87-0.76,1.7
  c0.1,0.59,0.59,0.86,0.85,1.01c0.04,0.02,0.09,0.05,0.14,0.08c0.09,0.06,0.2,0.15,0.32,0.25l0.01,0.01
  c0.14,0.11,0.27,0.22,0.41,0.32c0.14,0.1,0.28,0.18,0.41,0.25l0.01,0.01c0.1,0.05,0.24,0.14,0.28,0.18c0.06,0.08,0.11,0.2,0.15,0.32
  l0,0.01c0.05,0.12,0.1,0.25,0.17,0.38c0.37,0.64,0.94,1.39,2.12,1.54c0.2,0.13,0.4,0.19,0.62,0.19c0.05,0,0.09,0,0.14-0.01
  c0.3-0.03,0.97-0.35,1.21-0.62c0.06-0.07,0.1-0.14,0.14-0.2c0.08,0.05,0.17,0.09,0.28,0.12c0.09,0.02,0.18,0.03,0.28,0.03
  c0.15,0,0.28-0.02,0.42-0.05c0.09-0.02,0.18-0.03,0.26-0.03l0.03,0c0.04,0,0.1,0.01,0.17,0.02c0.1,0.01,0.18,0.02,0.26,0.02
  c0.03,0,0.07,0,0.12-0.01c1.12-0.12,1.86-1,2.18-1.75C13.52,11.87,13.78,11.6,13.74,11.17z M12.86,11.66
  c-0.26,0.73-0.92,1.44-1.76,1.53c-0.13,0.01-0.34-0.04-0.53-0.03c-0.3,0.01-0.57,0.12-0.8,0.07c-0.25-0.06-0.32-0.35-0.6-0.3
  c-0.21,0.04-0.24,0.39-0.4,0.56c-0.14,0.16-0.65,0.42-0.83,0.43c-0.18,0.02-0.3-0.01-0.5-0.17C6.49,13.69,6,13.14,5.63,12.49
  c-0.13-0.23-0.2-0.53-0.37-0.76c-0.16-0.22-0.53-0.35-0.83-0.56c-0.27-0.2-0.54-0.45-0.76-0.6c-0.25-0.16-0.67-0.31-0.73-0.7
  C2.77,8.77,4.44,8.5,3.97,7.51C3.9,7.35,3.71,7.27,3.71,7.08C3.7,6.81,4.07,6.62,3.94,6.25c0.39-0.2,0.38-0.82,0.6-1.19
  c0.11-1.69,0.94-2.72,2.55-2.92c1.48-0.19,3.78,0.01,4.48,1.19c0.32,0.54,0.38,1.15,0.66,1.79c0.13,0.3,0.39,0.71-0.07,0.83
  c-0.19,0.75,0.36,1.48,0,1.99c0.2,0.26,0.03,0.52,0.07,0.83c0.02,0.21,0.34,0.48,0.4,0.86c0.03,0.17-0.03,0.34,0,0.5
  c0.03,0.13,0.17,0.25,0.2,0.37c0.04,0.13,0.01,0.23,0.03,0.3c0.06,0.14,0.29,0.32,0.3,0.43C13.18,11.43,12.98,11.56,12.86,11.66z"/>
<path d="M4.17,9.04C4.1,9.16,4.34,9.19,4.31,9.07C4.3,9.02,4.23,9.04,4.17,9.04z"/>
<path d="M11.74,12.56c-0.21,0.03-0.26-0.12-0.5-0.17c-0.16,0.12-0.38,0.2-0.36,0.5c0.73,0.04,1.53-0.15,1.56-0.93
  C12.07,11.96,12.04,12.51,11.74,12.56z"/>
<path d="M12.13,10.53c-0.03-0.11-0.11-0.31-0.03-0.43c0.07-0.08,0.2,0.1,0.3,0c0.04-0.26-0.27-0.17-0.3-0.36
  c-0.03-0.14,0.16-0.06,0.13-0.2c-0.3-0.29-0.08-0.96-0.2-1.39c-0.05-0.2-0.27-0.22-0.27-0.4c0.06-0.11,0.31-0.03,0.37-0.13
  c0.01-0.32-0.29-0.33-0.46-0.43c-0.45-0.27-0.61-0.74-0.9-1.19c-0.4,0-0.8,0-1.19,0c-0.31,0.46-0.9,0.59-1.53,0.9
  c-0.42,0.2-0.94,0.59-1.29,0.53C6.37,7.35,5.93,6.66,5.93,6.15c-0.33-0.09-0.68,0.06-1,0.1c-0.06,0.16,0.16,0.32,0.2,0.5
  C5.11,6.83,5.09,6.9,5.1,7.02C5.09,7.14,5.24,7.1,5.2,7.25c-0.16,1.1,0.12,1.81,0.86,2.09c0.15,0.48,0.64,0.62,0.96,0.93
  c-0.02,0.13-0.1,0.19-0.23,0.2c-0.19-0.12-0.25-0.39-0.43-0.53c-0.11-0.09-0.28-0.1-0.4-0.17C5.47,9.47,5.14,9,4.7,8.64
  C4.58,8.7,4.44,8.76,4.4,8.91C4.84,9.13,5.1,9.51,5.5,9.77c0,0.04,0,0.09,0,0.13c0.23,0.05,0.37,0.19,0.5,0.33
  c-0.17,0.16-0.27,0.4-0.5,0.5C5.42,10.7,5.41,10.6,5.4,10.5c-0.29-0.01-0.53-0.33-0.66-0.6C4.31,9.86,4.31,9.4,3.91,9.34
  C3.69,9.49,3.9,9.73,3.94,9.9c0.04,0.15,0,0.3,0.07,0.43c0.21,0.45,0.89,0.79,1.33,0.96c0.42,0.89,0.75,1.81,1.82,2.09
  c0.24,0.06,0.49,0.21,0.7,0.23c0.66,0.08,1.07-0.42,1.16-0.96c-0.22-0.04-0.17,0.18-0.23,0.3c-0.3,0.06-0.32,0.35-0.6,0.33
  c-0.3-0.02-0.27-0.42-0.6-0.5c-0.07,0.1,0.08,0.33-0.07,0.4c-0.31-0.06-0.07-0.65,0.03-0.8c0.36-0.52,0.81-0.11,1.29-0.03
  c0.41,0.06,0.67-0.13,0.93-0.1c0.2-0.25,0.01-0.49,0.07-0.73c0.12-0.49,0.95-0.75,1.53-0.76c-0.18-0.42,0.05-1,0-1.29
  c-0.08-0.48-0.79-0.43-1.13-0.17C9.7,9.35,9.2,9.65,8.75,9.84C8.58,9.9,8.28,10.06,8.12,9.9c0.17-0.27,0.63-0.34,1-0.56
  c0.11-0.07,0.19-0.2,0.3-0.26c0.16-0.09,0.36-0.11,0.5-0.2c0.19-0.12,0.56-0.53,0.86-0.46c0.22,0.05,0.25,0.46,0.53,0.4
  c0.08,0.31,0.32,0.48,0.46,0.73c-0.27,0.16-0.08,0.62-0.13,1.03c-0.17,0.21-0.27,0.5-0.53,0.63c-0.08,0.39,0.12,0.91,0.6,0.66
  c0.12-0.13,0.13-0.38,0.33-0.43c0.22,0.07,0.3,0.44,0.5,0.43c0.44-0.37,0.19-1.22-0.07-1.63C12.29,10.27,12.33,10.52,12.13,10.53z
    M7.99,7.88C7.64,8.02,7.27,8.21,6.89,8.24C6.8,8.25,6.65,8.19,6.56,8.21c-0.4,0.09-0.37,0.57-0.6,0.8
  c-0.29-0.13-0.56-0.46-0.6-0.9C5.34,7.76,5.54,7.4,5.5,7.15C5.47,6.98,5.24,6.86,5.23,6.72c-0.01-0.2,0.19-0.32,0.33-0.33
  c-0.08,0.76,0.46,1.37,1,1.72c0.95-0.07,1.49-0.54,2.29-0.76C8.76,7.64,8.33,7.73,7.99,7.88z M11.21,8.31
  c-0.29-0.2-0.23-0.91-0.23-1.29C11.37,7.16,11.27,7.93,11.21,8.31z M11.97,11.06c0.01-0.11-0.04-0.29,0.1-0.27
  C12.1,10.88,12.09,11.04,11.97,11.06z"/>
<path d="M4.6,9.44c0.02-0.15-0.05-0.22-0.2-0.2C4.3,9.38,4.46,9.54,4.6,9.44z"/>
<path d="M5.5,4.36c0.07,0.3,0.02,0.71,0.07,0.96c1.66,0.07,3.9-0.22,5.71-0.07c0.26,0.02,0.48,0.16,0.73,0.07
  c-0.25-0.74-0.31-1.49-0.73-2.06C10.71,2.51,9.43,2.3,8.12,2.3C7.27,2.31,6.27,2.41,5.73,2.84C5.32,3.16,5.24,3.66,5,4.16
  C5.11,4.29,5.47,4.16,5.5,4.36z"/>
<path d="M4.77,9.57C4.72,9.58,4.74,9.65,4.74,9.7C4.96,9.9,5,9.4,4.77,9.57z"/>
<path d="M4.64,8.41c0.22-0.38,0.26-1,0.2-1.43c-0.04-0.32-0.15-0.77-0.5-0.9c-0.02,0-0.04,0-0.07,0c0.05,0.59,0.25,1.47,0.17,2.19
  c-0.05,0.1-0.25,0.04-0.33,0.1c-0.54,0.31-1.5,1.59-0.53,1.96c0.07-0.21-0.1-0.46-0.03-0.8C3.67,8.94,4.36,8.88,4.64,8.41z"/>
<path d="M5.17,9.8C5.07,9.82,5.02,9.87,5,9.97C5.13,9.99,5.15,9.89,5.17,9.8z"/>
<path d="M5.67,10.2c-0.15,0-0.23,0.08-0.23,0.23C5.56,10.41,5.61,10.3,5.67,10.2z"/>
<path d="M5.24,10.03c-0.05,0.01-0.03,0.08-0.03,0.13C5.43,10.36,5.47,9.86,5.24,10.03z"/>
</svg>
